PathFileType	4	(X/Y/Z)	/Users/visionmauri/4_3_2_f_1_Sports2D/4_3_2_f_1_Sports2D_px_person00.trc
DataRate	CameraRate	NumFrames	NumMarkers	Units	OrigDataRate	OrigDataStartFrame	OrigNumFrames
30.0	30.0	6	22	m	30.0	90	360
Frame#	Time	Hip			RHip			RKnee			RAnkle			RBigToe			RSmallToe			RHeel			LHip			LKnee			LAnkle			LBigToe			LSmallToe			LHeel			Neck			Head			Nose			RShoulder			RElbow			RWrist			LShoulder			LElbow			LWrist			
		X1	Y1	Z1	X2	Y2	Z2	X3	Y3	Z3	X4	Y4	Z4	X5	Y5	Z5	X6	Y6	Z6	X7	Y7	Z7	X8	Y8	Z8	X9	Y9	Z9	X10	Y10	Z10	X11	Y11	Z11	X12	Y12	Z12	X13	Y13	Z13	X14	Y14	Z14	X15	Y15	Z15	X16	Y16	Z16	X17	Y17	Z17	X18	Y18	Z18	X19	Y19	Z19	X20	Y20	Z20	X21	Y21	Z21	X22	Y22	Z22
90	3.008356545961003	467.26177427768755	820.1367884841042	0.0	514.090369425874	824.5712518946385	0.0	564.2355766282598	970.0929998997784	0.0	604.8074041829692	1171.7325214019274	0.0	618.5887396879763	1207.0527073067274	0.0	635.2546801433297	1212.5060031092821	0.0	592.931750281888	1206.4889858439763	0.0	429.8603556408247	825.2774857196255	0.0	459.8144070814368	1028.375863560495	0.0	468.9907713335747	1217.4656826624591	0.0	490.25492049887583	1258.4494682706775	0.0	462.0122472127169	1256.5011320474468	0.0	469.87089362320995	1250.321490976177	0.0	512.9456396223303	557.2290527693635	0.0	584.9273731807481	462.1883080560787	0.0	585.0202599081755	545.5089126004405	0.0	564.2109258246664	584.4320962224958	0.0	629.0810321020133	713.5628897705586	0.0	708.1873987362255	811.6882867434018	0.0	438.38495280854573	573.1134632729786	0.0	449.76417078199523	708.4084616240369	0.0	541.595403840019	785.8776142579378	0.0
91	3.041782729805014	465.55214404587304	819.9917678698249	0.0	511.40181512582666	825.8499681234598	0.0	563.7649362650025	976.2705714820651	0.0	605.445993673835	1187.5418366652898	0.0	631.8039522140458	1203.9926223867299	0.0	647.6184477686024	1212.7475280374451	0.0	593.6164534344654	1224.4558975629652	0.0	429.6794437577614	824.8131444405664	0.0	459.8510107572181	1027.6896328901328	0.0	469.1281471925172	1217.6447819062737	0.0	492.0462119412136	1256.716316205502	0.0	464.9464733030961	1257.1679550708104	0.0	468.9909869525885	1248.601281612644	0.0	513.9399866448509	557.6682387512753	0.0	588.7703998286505	463.34870775763335	0.0	586.6649504191006	547.4187759118014	0.0	564.4719517267561	584.8346483806574	0.0	629.5556485626363	714.0174828367785	0.0	709.0614154452928	812.0958691072443	0.0	442.7276445098195	573.1200344893977	0.0	470.3300536928332	707.9148047111416	0.0	559.4162024895884	786.9258070920117	0.0
92	3.0752089136490253	465.9062758534359	819.6316624908196	0.0	510.71258509342664	826.1525212890489	0.0	563.336143664181	980.505078491352	0.0	604.5979474641756	1181.9566516785137	0.0	636.8125540375244	1202.3690465493369	0.0	647.6742203846877	1211.6870502150223	0.0	592.7709465476242	1218.532482435906	0.0	429.4886116467606	823.3138479772267	0.0	460.0590357245133	1026.2640734564623	0.0	469.0067594123794	1217.2182445258236	0.0	493.0698853129304	1255.3600822095755	0.0	466.3369602561748	1257.5112265694966	0.0	468.1672575055303	1247.653091648916	0.0	515.573478533314	557.9634857768748	0.0	592.3820698581842	463.5188785897104	0.0	588.7113683291233	548.1606495738911	0.0	565.5909828506773	585.2589150292088	0.0	630.2843880870188	715.0502390107915	0.0	709.1715639172462	812.6211589605543	0.0	446.1252434714989	573.095016615998	0.0	482.0693961277137	708.1068919017223	0.0	567.5907856288669	785.4950120460888	0.0
93	3.1086350974930363	467.75234793893367	819.3270061592896	0.0	511.13368525336085	826.1918346971433	0.0	562.7695746187403	981.9952799484277	0.0	602.6275785566422	1178.2862567462362	0.0	632.4630290463455	1202.7559785297722	0.0	638.6450696419706	1211.4482337453157	0.0	590.638733657269	1212.8127672623605	0.0	430.0538890703275	822.9192377302625	0.0	461.1653280593945	1024.1758481841725	0.0	468.6831568757221	1216.3561233929977	0.0	493.6757917307508	1255.4942072639026	0.0	466.9767072612407	1257.202202262238	0.0	467.6197385021258	1247.842049706902	0.0	518.9296827966195	558.4732640893246	0.0	595.069750690323	463.01140547258086	0.0	591.6799405102965	548.0741075525618	0.0	567.2153088653115	585.5853735651139	0.0	630.8051165877338	716.2040812203791	0.0	709.0762409671847	813.0740681146121	0.0	449.29375396889793	572.5381061186699	0.0	487.6091660041627	710.4246596045701	0.0	575.5344652012494	782.3185106071373	0.0
94	3.1420612813370474	469.26880132517323	819.7046465309992	0.0	511.845578933739	825.8038070902187	0.0	563.1234672215479	983.1647324643014	0.0	601.9483197991094	1182.8099545204957	0.0	632.0921626259292	1207.1548080986665	0.0	635.0917162932775	1216.8077409353598	0.0	589.7364854743059	1216.4837282886622	0.0	431.3446183388559	823.3933669241218	0.0	463.21022451417747	1022.6907762754478	0.0	468.2828562564402	1215.7870807143217	0.0	494.1297230458701	1256.368530799266	0.0	467.56217707652934	1256.8019800757368	0.0	467.59954928929295	1249.203382318035	0.0	522.5321808537204	560.2694309846457	0.0	597.4982649382827	461.58040907745124	0.0	595.2033152017834	547.9077972763104	0.0	568.7056681996235	585.877520120964	0.0	630.7788222177452	716.9691674557405	0.0	709.1383830467291	812.7504958145591	0.0	452.8023035492955	572.4372451513417	0.0	492.16557998842796	713.3112339117471	0.0	584.4072245972467	778.4541132166448	0.0
95	3.1754874651810585	469.84072054029485	820.9444749929843	0.0	512.4069736666177	825.1621103628321	0.0	564.2229220859459	985.6448298227145	0.0	603.7548429695474	1192.1443334626988	0.0	644.48657830509	1214.6450346539311	0.0	641.0155041307133	1228.9485056155884	0.0	591.9883502111343	1228.2818046034167	0.0	432.9357869243465	823.5646248968285	0.0	465.4695558279889	1022.6561408124297	0.0	468.04651256358864	1216.0037267877378	0.0	494.2535477126551	1256.8345618232752	0.0	468.0367164008092	1256.6695419216094	0.0	467.93136955889685	1251.1840832325088	0.0	525.2000810874009	563.4572019587434	0.0	600.0243049061013	459.5027463475112	0.0	598.4721593183546	547.7776131173895	0.0	569.9007410923141	586.0435638231025	0.0	630.6242899515807	717.5501051222294	0.0	709.127941704144	811.8295526494396	0.0	456.9106541503183	573.4448323805807	0.0	498.8161423329211	715.4447732816368	0.0	592.0509143437855	776.4374037339138	0.0
